# xmcd
#
# Track frame offsets:
# 150
# 14747
# 25272
# 38302
# 46320
# 60112
# 67760
# 83740
# 96622
# 112040
# 122332
# 129895
# 144235
# 151267
#
# Disc length: 2223 seconds
#
# Revision: 0
# Processed by: cddbd v1.5PL3 Copyright (c) Steve Scherf et al.
# Submitted via: Audion 3.0.2 (http://www.panic.com/audion/)
#
DISCID=a308ad0e
DTITLE=Billie Holiday - Lover Man
DYEAR=1900
DGENRE=
TTITLE0=Lover Man
TTITLE1=Ain't Nobody's Business
TTITLE2=Billie's Blues
TTITLE3=Miss Brown To You
TTITLE4=Strange Fruit
TTITLE5=Why Not Take All of Me
TTITLE6=Do Nothing Till You Hear From Me
TTITLE7=My Man
TTITLE8=I Cover The Waterfront
TTITLE9=Lover Come Back To Me
TTITLE10=Them There Eyes
TTITLE11=He's Funny That Way
TTITLE12=You're Driving Me Crazy
TTITLE13=Fine And Mellow
EXTD=
EXTT0=
EXTT1=
EXTT2=
EXTT3=
EXTT4=
EXTT5=
EXTT6=
EXTT7=
EXTT8=
EXTT9=
EXTT10=
EXTT11=
EXTT12=
EXTT13=
PLAYORDER=
